<svg xmlns="http://www.w3.org/2000/svg" viewBox="0 0 600 800">
  <defs>
    <pattern id="roof2" patternUnits="userSpaceOnUse" width="20" height="20">
      <path d="M0,10 L10,0 L20,10 L10,20 Z" fill="none" stroke="#95CC58" stroke-width="0.6" opacity="0.4"/>
    </pattern>
  </defs>

  <!-- Background -->
  <rect width="600" height="800" fill="#FAFAF9"/>

  <!-- Header bar -->
  <rect x="0" y="0" width="600" height="72" fill="#1A3810"/>
  <text x="30" y="28" font-family="'DM Sans',sans-serif" font-size="9" font-weight="600" fill="#78BF42" letter-spacing="3">DEDDEH HILLS</text>
  <text x="30" y="50" font-family="'DM Sans',sans-serif" font-size="18" font-weight="700" fill="white">Apartments — Second Floor (Duplex Upper)</text>
  <text x="30" y="64" font-family="'DM Sans',sans-serif" font-size="9" fill="rgba(255,255,255,0.5)">indicative · not to scale · bedrooms + rooftop terrace level</text>

  <!-- Building shadow -->
  <rect x="54" y="92" width="496" height="510" rx="3" fill="#D1D5DB" opacity="0.4"/>

  <!-- Building outer wall -->
  <rect x="50" y="88" width="496" height="510" rx="2" fill="#374151"/>

  <!-- ── UNIT C UPPER (LEFT) ─────────────────────────────── -->
  <rect x="56" y="94" width="238" height="16" fill="#2D5A27" opacity="0.9"/>
  <text x="175" y="106" text-anchor="middle" font-family="'DM Sans',sans-serif" font-size="9" font-weight="700" fill="#95CC58" letter-spacing="2">UNIT C — DUPLEX UPPER</text>

  <!-- Stair landing (descend arrow) -->
  <rect x="56" y="110" width="80" height="72" fill="#EDECEA"/>
  <text x="96" y="140" text-anchor="middle" font-family="'DM Sans',sans-serif" font-size="8" font-weight="600" fill="#4B5563">LANDING</text>
  <line x1="66" y1="160" x2="126" y2="160" stroke="#9CA3AF" stroke-width="0.8"/>
  <line x1="66" y1="153" x2="126" y2="153" stroke="#9CA3AF" stroke-width="0.8"/>
  <line x1="66" y1="146" x2="126" y2="146" stroke="#9CA3AF" stroke-width="0.8"/>
  <text x="96" y="174" text-anchor="middle" font-family="'DM Sans',sans-serif" font-size="7" fill="#9CA3AF">▼ F1</text>

  <!-- Master Bedroom -->
  <rect x="136" y="110" width="158" height="140" fill="#EBF3FA"/>
  <rect x="148" y="124" width="120" height="70" rx="5" fill="none" stroke="#93C5D8" stroke-width="1.5"/>
  <rect x="148" y="124" width="120" height="24" rx="5" fill="#B8D9E8" opacity="0.6"/>
  <text x="215" y="220" text-anchor="middle" font-family="'DM Sans',sans-serif" font-size="12" font-weight="700" fill="#374151">MASTER</text>
  <text x="215" y="235" text-anchor="middle" font-family="'DM Sans',sans-serif" font-size="12" font-weight="700" fill="#374151">BEDROOM</text>
  <text x="215" y="246" text-anchor="middle" font-family="'DM Sans',sans-serif" font-size="7" fill="#9CA3AF">22 m²</text>

  <!-- En-suite Bath -->
  <rect x="56" y="182" width="80" height="68" fill="#E8F4FB"/>
  <ellipse cx="74" cy="204" rx="11" ry="14" fill="none" stroke="#7DB9D4" stroke-width="1.5"/>
  <rect x="90" y="196" width="30" height="24" rx="10" fill="none" stroke="#7DB9D4" stroke-width="1.5"/>
  <text x="96" y="235" text-anchor="middle" font-family="'DM Sans',sans-serif" font-size="8" font-weight="600" fill="#374151">EN-SUITE</text>
  <text x="96" y="244" text-anchor="middle" font-family="'DM Sans',sans-serif" font-size="7" fill="#9CA3AF">6 m²</text>

  <!-- Bedroom 2 -->
  <rect x="56" y="250" width="158" height="120" fill="#EBF3FA"/>
  <rect x="66" y="264" width="110" height="60" rx="5" fill="none" stroke="#93C5D8" stroke-width="1.5"/>
  <rect x="66" y="264" width="110" height="20" rx="5" fill="#B8D9E8" opacity="0.6"/>
  <text x="137" y="344" text-anchor="middle" font-family="'DM Sans',sans-serif" font-size="11" font-weight="700" fill="#374151">BEDROOM 2</text>
  <text x="137" y="358" text-anchor="middle" font-family="'DM Sans',sans-serif" font-size="7" fill="#9CA3AF">16 m²</text>

  <!-- Bedroom 3 -->
  <rect x="214" y="250" width="80" height="120" fill="#EBF3FA"/>
  <rect x="220" y="264" width="68" height="55" rx="5" fill="none" stroke="#93C5D8" stroke-width="1.5"/>
  <rect x="220" y="264" width="68" height="18" rx="5" fill="#B8D9E8" opacity="0.6"/>
  <text x="254" y="334" text-anchor="middle" font-family="'DM Sans',sans-serif" font-size="9" font-weight="700" fill="#374151">BED 3</text>
  <text x="254" y="348" text-anchor="middle" font-family="'DM Sans',sans-serif" font-size="7" fill="#9CA3AF">13 m²</text>

  <!-- Family Bath -->
  <rect x="56" y="370" width="238" height="64" fill="#E8F4FB"/>
  <ellipse cx="96" cy="398" rx="14" ry="18" fill="none" stroke="#7DB9D4" stroke-width="1.5"/>
  <rect x="120" y="384" width="26" height="30" rx="13" fill="none" stroke="#7DB9D4" stroke-width="1.5"/>
  <text x="220" y="400" text-anchor="middle" font-family="'DM Sans',sans-serif" font-size="10" font-weight="600" fill="#374151">FAMILY BATHROOM</text>
  <text x="220" y="416" text-anchor="middle" font-family="'DM Sans',sans-serif" font-size="7" fill="#9CA3AF">7 m²</text>

  <!-- Vertical divider -->
  <rect x="294" y="94" width="6" height="510" fill="#374151"/>

  <!-- ── UNIT D UPPER (RIGHT) ─────────────────────────────── -->
  <rect x="300" y="94" width="238" height="16" fill="#2D5A27" opacity="0.9"/>
  <text x="419" y="106" text-anchor="middle" font-family="'DM Sans',sans-serif" font-size="9" font-weight="700" fill="#95CC58" letter-spacing="2">UNIT D — DUPLEX UPPER</text>

  <!-- Stair landing D -->
  <rect x="458" y="110" width="80" height="72" fill="#EDECEA"/>
  <text x="498" y="140" text-anchor="middle" font-family="'DM Sans',sans-serif" font-size="8" font-weight="600" fill="#4B5563">LANDING</text>
  <line x1="468" y1="160" x2="528" y2="160" stroke="#9CA3AF" stroke-width="0.8"/>
  <line x1="468" y1="153" x2="528" y2="153" stroke="#9CA3AF" stroke-width="0.8"/>
  <line x1="468" y1="146" x2="528" y2="146" stroke="#9CA3AF" stroke-width="0.8"/>
  <text x="498" y="174" text-anchor="middle" font-family="'DM Sans',sans-serif" font-size="7" fill="#9CA3AF">▼ F1</text>

  <!-- Master Bedroom D -->
  <rect x="300" y="110" width="158" height="140" fill="#EBF3FA"/>
  <rect x="312" y="124" width="120" height="70" rx="5" fill="none" stroke="#93C5D8" stroke-width="1.5"/>
  <rect x="312" y="124" width="120" height="24" rx="5" fill="#B8D9E8" opacity="0.6"/>
  <text x="381" y="220" text-anchor="middle" font-family="'DM Sans',sans-serif" font-size="12" font-weight="700" fill="#374151">MASTER</text>
  <text x="381" y="235" text-anchor="middle" font-family="'DM Sans',sans-serif" font-size="12" font-weight="700" fill="#374151">BEDROOM</text>
  <text x="381" y="246" text-anchor="middle" font-family="'DM Sans',sans-serif" font-size="7" fill="#9CA3AF">22 m²</text>

  <!-- En-suite Bath D -->
  <rect x="458" y="182" width="80" height="68" fill="#E8F4FB"/>
  <ellipse cx="476" cy="204" rx="11" ry="14" fill="none" stroke="#7DB9D4" stroke-width="1.5"/>
  <rect x="492" y="196" width="30" height="24" rx="10" fill="none" stroke="#7DB9D4" stroke-width="1.5"/>
  <text x="498" y="235" text-anchor="middle" font-family="'DM Sans',sans-serif" font-size="8" font-weight="600" fill="#374151">EN-SUITE</text>
  <text x="498" y="244" text-anchor="middle" font-family="'DM Sans',sans-serif" font-size="7" fill="#9CA3AF">6 m²</text>

  <!-- Bedroom 2 D -->
  <rect x="380" y="250" width="158" height="120" fill="#EBF3FA"/>
  <rect x="388" y="264" width="110" height="60" rx="5" fill="none" stroke="#93C5D8" stroke-width="1.5"/>
  <rect x="388" y="264" width="110" height="20" rx="5" fill="#B8D9E8" opacity="0.6"/>
  <text x="459" y="344" text-anchor="middle" font-family="'DM Sans',sans-serif" font-size="11" font-weight="700" fill="#374151">BEDROOM 2</text>
  <text x="459" y="358" text-anchor="middle" font-family="'DM Sans',sans-serif" font-size="7" fill="#9CA3AF">16 m²</text>

  <!-- Bedroom 3 D -->
  <rect x="300" y="250" width="80" height="120" fill="#EBF3FA"/>
  <rect x="306" y="264" width="68" height="55" rx="5" fill="none" stroke="#93C5D8" stroke-width="1.5"/>
  <rect x="306" y="264" width="68" height="18" rx="5" fill="#B8D9E8" opacity="0.6"/>
  <text x="340" y="334" text-anchor="middle" font-family="'DM Sans',sans-serif" font-size="9" font-weight="700" fill="#374151">BED 3</text>
  <text x="340" y="348" text-anchor="middle" font-family="'DM Sans',sans-serif" font-size="7" fill="#9CA3AF">13 m²</text>

  <!-- Family Bath D -->
  <rect x="300" y="370" width="238" height="64" fill="#E8F4FB"/>
  <ellipse cx="340" cy="398" rx="14" ry="18" fill="none" stroke="#7DB9D4" stroke-width="1.5"/>
  <rect x="364" y="384" width="26" height="30" rx="13" fill="none" stroke="#7DB9D4" stroke-width="1.5"/>
  <text x="460" y="400" text-anchor="middle" font-family="'DM Sans',sans-serif" font-size="10" font-weight="600" fill="#374151">FAMILY BATHROOM</text>
  <text x="460" y="416" text-anchor="middle" font-family="'DM Sans',sans-serif" font-size="7" fill="#9CA3AF">7 m²</text>

  <!-- ── SHARED ROOFTOP TERRACE ──────────────────────────── -->
  <rect x="56" y="434" width="480" height="5" fill="#374151"/>
  <rect x="56" y="439" width="480" height="149" fill="url(#roof2)"/>
  <rect x="56" y="439" width="480" height="149" fill="#C8E8A8" opacity="0.3"/>
  <!-- terrace features -->
  <rect x="200" y="454" width="60" height="40" rx="4" fill="none" stroke="#78BF42" stroke-width="1.5" stroke-dasharray="4,3"/>
  <text x="230" y="478" text-anchor="middle" font-family="'DM Sans',sans-serif" font-size="8" fill="#2D5A27">BBQ</text>
  <rect x="320" y="454" width="80" height="40" rx="4" fill="none" stroke="#78BF42" stroke-width="1.5" stroke-dasharray="4,3"/>
  <text x="360" y="478" text-anchor="middle" font-family="'DM Sans',sans-serif" font-size="8" fill="#2D5A27">SEATING</text>
  <text x="298" y="545" text-anchor="middle" font-family="'DM Sans',sans-serif" font-size="14" font-weight="700" fill="#2D5A27">SHARED ROOFTOP TERRACE</text>
  <text x="298" y="564" text-anchor="middle" font-family="'DM Sans',sans-serif" font-size="9" fill="#6AAB50">~120 m² · panoramic views</text>

  <!-- ── DIMENSIONS ──────────────────────────────────────── -->
  <line x1="50" y1="604" x2="546" y2="604" stroke="#9CA3AF" stroke-width="0.8"/>
  <line x1="50" y1="600" x2="50" y2="608" stroke="#9CA3AF" stroke-width="0.8"/>
  <line x1="546" y1="600" x2="546" y2="608" stroke="#9CA3AF" stroke-width="0.8"/>
  <text x="298" y="616" text-anchor="middle" font-family="'DM Sans',sans-serif" font-size="8" fill="#9CA3AF">≈ 18 m</text>

  <!-- ── NORTH ARROW ─────────────────────────────────────── -->
  <g transform="translate(556,100)">
    <circle cx="0" cy="0" r="17" fill="white" stroke="#D1D5DB" stroke-width="1.5"/>
    <polygon points="0,-12 -4,4 0,0 4,4" fill="#1A3810"/>
    <polygon points="0,0 -4,4 0,12 4,4" fill="#9CA3AF"/>
    <text x="0" y="26" text-anchor="middle" font-family="'DM Sans',sans-serif" font-size="8" font-weight="700" fill="#374151">N</text>
  </g>

  <!-- ── FOOTER ──────────────────────────────────────────── -->
  <rect x="0" y="660" width="600" height="140" fill="#F4F9EF"/>
  <line x1="0" y1="660" x2="600" y2="660" stroke="#E5E7EB" stroke-width="1"/>

  <rect x="30" y="674" width="175" height="38" rx="6" fill="#1A3810"/>
  <text x="117" y="690" text-anchor="middle" font-family="'DM Sans',sans-serif" font-size="8" font-weight="600" fill="#78BF42" letter-spacing="1">SECOND FLOOR — DUPLEX UPPER</text>
  <text x="117" y="705" text-anchor="middle" font-family="'DM Sans',sans-serif" font-size="9" fill="rgba(255,255,255,0.8)">3 beds + en-suite + shared rooftop</text>

  <rect x="30" y="724" width="10" height="10" rx="2" fill="#EBF3FA"/>
  <text x="44" y="733" font-family="'DM Sans',sans-serif" font-size="8" fill="#6B7280">Bedroom</text>
  <rect x="100" y="724" width="10" height="10" rx="2" fill="#E8F4FB"/>
  <text x="114" y="733" font-family="'DM Sans',sans-serif" font-size="8" fill="#6B7280">Bathroom</text>
  <rect x="178" y="724" width="10" height="10" rx="2" fill="#DFF1D5"/>
  <text x="192" y="733" font-family="'DM Sans',sans-serif" font-size="8" fill="#6B7280">Rooftop</text>
  <rect x="248" y="724" width="10" height="10" rx="2" fill="#EDECEA"/>
  <text x="262" y="733" font-family="'DM Sans',sans-serif" font-size="8" fill="#6B7280">Landing / Circulation</text>

  <text x="300" y="758" text-anchor="middle" font-family="'DM Sans',sans-serif" font-size="8" fill="#9CA3AF">Deddeh Hills Gated Community · Koura, Lebanon · For illustration purposes only</text>
</svg>
