<svg xmlns="http://www.w3.org/2000/svg" viewBox="0 0 800 560">
  <defs>
    <linearGradient id="skyTwin" x1="0" y1="0" x2="0" y2="1">
      <stop offset="0%" stop-color="#6A9CBF"/>
      <stop offset="50%" stop-color="#A8CAE0"/>
      <stop offset="100%" stop-color="#CBE4C0"/>
    </linearGradient>
    <linearGradient id="facadeA" x1="0" y1="0" x2="0" y2="1">
      <stop offset="0%" stop-color="#F8F6F2"/>
      <stop offset="100%" stop-color="#E8E4DC"/>
    </linearGradient>
    <linearGradient id="facadeB" x1="0" y1="0" x2="0" y2="1">
      <stop offset="0%" stop-color="#F4F2EE"/>
      <stop offset="100%" stop-color="#E4E0D8"/>
    </linearGradient>
    <linearGradient id="sideT" x1="0" y1="0" x2="1" y2="0">
      <stop offset="0%" stop-color="#D0CCC4"/>
      <stop offset="100%" stop-color="#BCB8B0"/>
    </linearGradient>
    <linearGradient id="groundT" x1="0" y1="0" x2="0" y2="1">
      <stop offset="0%" stop-color="#9DC870"/>
      <stop offset="100%" stop-color="#78A850"/>
    </linearGradient>
    <linearGradient id="poolAT" x1="0" y1="0" x2="0" y2="1">
      <stop offset="0%" stop-color="#5BB8D8"/>
      <stop offset="100%" stop-color="#3A90B8"/>
    </linearGradient>
    <linearGradient id="poolBT" x1="0" y1="0" x2="0" y2="1">
      <stop offset="0%" stop-color="#5BB8D8"/>
      <stop offset="100%" stop-color="#3A90B8"/>
    </linearGradient>
    <linearGradient id="baseTwin" x1="0" y1="0" x2="0" y2="1">
      <stop offset="0%" stop-color="#D4D0C8"/>
      <stop offset="100%" stop-color="#C4C0B8"/>
    </linearGradient>
    <filter id="shadowT">
      <feDropShadow dx="5" dy="10" stdDeviation="8" flood-color="#1A3810" flood-opacity="0.18"/>
    </filter>
  </defs>

  <!-- Sky -->
  <rect width="800" height="560" fill="url(#skyTwin)"/>

  <!-- Rolling hills -->
  <ellipse cx="200" cy="265" rx="250" ry="65" fill="#7AB84E" opacity="0.22"/>
  <ellipse cx="600" cy="270" rx="220" ry="60" fill="#6EAC44" opacity="0.18"/>

  <!-- Ground -->
  <polygon points="0,400 800,400 800,560 0,560" fill="url(#groundT)"/>
  <!-- Shared driveway -->
  <polygon points="355,400 445,400 420,510 380,510" fill="#D0CABC" opacity="0.7"/>
  <line x1="400" y1="400" x2="400" y2="510" stroke="#C0BAA8" stroke-width="1" stroke-dasharray="5,5" opacity="0.4"/>
  <!-- Two separate paths (left + right driveways for each unit) -->
  <polygon points="200,400 260,400 248,440 212,440" fill="#D0CABC" opacity="0.5"/>
  <polygon points="540,400 600,400 588,440 552,440" fill="#D0CABC" opacity="0.5"/>

  <!-- Shadow on ground -->
  <ellipse cx="400" cy="404" rx="290" ry="18" fill="#1A3810" opacity="0.10"/>

  <!-- ── BASEMENT / BASE LEVEL ──────────────────────────── -->
  <rect x="70" y="340" width="660" height="62" rx="1" fill="url(#baseTwin)" filter="url(#shadowT)"/>
  <!-- Basement stone coursing -->
  <line x1="70" y1="355" x2="730" y2="355" stroke="#B0ACA4" stroke-width="0.7" opacity="0.5"/>
  <line x1="70" y1="370" x2="730" y2="370" stroke="#B0ACA4" stroke-width="0.7" opacity="0.5"/>
  <line x1="70" y1="385" x2="730" y2="385" stroke="#B0ACA4" stroke-width="0.7" opacity="0.5"/>
  <!-- Basement vents / garage openings -->
  <rect x="100" y="356" width="80" height="28" rx="2" fill="#3A4A5A" opacity="0.6"/>
  <line x1="140" y1="356" x2="140" y2="384" stroke="#5A6A7A" stroke-width="1"/>
  <rect x="220" y="356" width="80" height="28" rx="2" fill="#3A4A5A" opacity="0.6"/>
  <line x1="260" y1="356" x2="260" y2="384" stroke="#5A6A7A" stroke-width="1"/>
  <rect x="440" y="356" width="80" height="28" rx="2" fill="#3A4A5A" opacity="0.6"/>
  <line x1="480" y1="356" x2="480" y2="384" stroke="#5A6A7A" stroke-width="1"/>
  <rect x="560" y="356" width="80" height="28" rx="2" fill="#3A4A5A" opacity="0.6"/>
  <line x1="600" y1="356" x2="600" y2="384" stroke="#5A6A7A" stroke-width="1"/>
  <text x="185" y="378" text-anchor="middle" font-family="'DM Sans',sans-serif" font-size="8" fill="#7DAFC8" opacity="0.8">UNIT A · GARAGE</text>
  <text x="585" y="378" text-anchor="middle" font-family="'DM Sans',sans-serif" font-size="8" fill="#7DAFC8" opacity="0.8">UNIT B · GARAGE</text>

  <!-- ── PARTY WALL DIVIDER (visible center line) ────────── -->
  <!-- Subtle center marking -->
  <line x1="395" y1="90" x2="405" y2="400" stroke="#C4C0B8" stroke-width="2" opacity="0.5"/>

  <!-- ── UNIT A — LEFT HALF ───────────────────────────── -->
  <!-- Side face (far left) -->
  <polygon points="70,130 135,152 135,342 70,320" fill="url(#sideT)" filter="url(#shadowT)"/>
  <!-- Side windows -->
  <rect x="82" y="162" width="30" height="50" rx="2" fill="#7DAFC8" opacity="0.45"/>
  <rect x="82" y="230" width="30" height="50" rx="2" fill="#7DAFC8" opacity="0.40"/>

  <!-- Unit A facade -->
  <rect x="135" y="105" width="260" height="238" rx="1" fill="url(#facadeA)" filter="url(#shadowT)"/>

  <!-- A: Floor 1 slab -->
  <rect x="135" y="208" width="260" height="8" fill="#DDDAD2"/>
  <!-- A: Roof band -->
  <rect x="135" y="100" width="260" height="10" fill="#2D5A27"/>
  <!-- A: Parapet crenellations -->
  <rect x="147" y="88" width="20" height="16" rx="1" fill="#2D5225"/>
  <rect x="177" y="88" width="20" height="16" rx="1" fill="#2D5225"/>
  <rect x="207" y="88" width="20" height="16" rx="1" fill="#2D5225"/>
  <rect x="237" y="88" width="20" height="16" rx="1" fill="#2D5225"/>
  <rect x="267" y="88" width="20" height="16" rx="1" fill="#2D5225"/>
  <rect x="297" y="88" width="20" height="16" rx="1" fill="#2D5225"/>
  <rect x="327" y="88" width="20" height="16" rx="1" fill="#2D5225"/>
  <rect x="357" y="88" width="20" height="16" rx="1" fill="#2D5225"/>
  <!-- Rooftop planter A -->
  <ellipse cx="200" cy="100" rx="22" ry="10" fill="#78BF42" opacity="0.75"/>
  <ellipse cx="300" cy="100" rx="18" ry="9" fill="#95CC58" opacity="0.70"/>

  <!-- A GF windows -->
  <rect x="150" y="220" width="65" height="82" rx="3" fill="#8BBFD8" opacity="0.65"/>
  <line x1="182" y1="220" x2="182" y2="302" stroke="white" stroke-width="1" opacity="0.5"/>
  <rect x="150" y="220" width="65" height="8" rx="1" fill="#E8E4DC" opacity="0.85"/>
  <rect x="232" y="220" width="60" height="82" rx="3" fill="#8BBFD8" opacity="0.65"/>
  <line x1="261" y1="220" x2="261" y2="302" stroke="white" stroke-width="1" opacity="0.5"/>
  <rect x="232" y="220" width="60" height="8" rx="1" fill="#E8E4DC" opacity="0.85"/>
  <!-- A GF Entry door -->
  <rect x="307" y="248" width="52" height="54" rx="2" fill="#7DAFC8" opacity="0.85"/>
  <polygon points="299,250 369,250 362,236 307,236" fill="#2D5A27" opacity="0.88"/>
  <line x1="332" y1="248" x2="332" y2="302" stroke="white" stroke-width="1" opacity="0.5"/>

  <!-- A F1 windows -->
  <rect x="150" y="118" width="65" height="82" rx="3" fill="#9BC8DC" opacity="0.58"/>
  <line x1="182" y1="118" x2="182" y2="200" stroke="white" stroke-width="1" opacity="0.5"/>
  <rect x="150" y="118" width="65" height="8" rx="1" fill="#E8E4DC" opacity="0.85"/>
  <rect x="232" y="118" width="60" height="82" rx="3" fill="#9BC8DC" opacity="0.58"/>
  <line x1="261" y1="118" x2="261" y2="200" stroke="white" stroke-width="1" opacity="0.5"/>
  <rect x="232" y="118" width="60" height="8" rx="1" fill="#E8E4DC" opacity="0.85"/>
  <!-- A F1 Master window (large) -->
  <rect x="307" y="115" width="82" height="88" rx="3" fill="#9BC8DC" opacity="0.58"/>
  <line x1="347" y1="115" x2="347" y2="203" stroke="white" stroke-width="1.5" opacity="0.5"/>
  <rect x="307" y="115" width="82" height="8" rx="1" fill="#E8E4DC" opacity="0.85"/>
  <!-- F1 mini balcony railing A -->
  <rect x="140" y="200" width="82" height="8" rx="1" fill="#2D5A27" opacity="0.65"/>
  <line x1="150" y1="203" x2="150" y2="210" stroke="#2D5A27" stroke-width="1"/>
  <line x1="168" y1="203" x2="168" y2="210" stroke="#2D5A27" stroke-width="1"/>
  <line x1="186" y1="203" x2="186" y2="210" stroke="#2D5A27" stroke-width="1"/>
  <line x1="204" y1="203" x2="204" y2="210" stroke="#2D5A27" stroke-width="1"/>
  <line x1="220" y1="203" x2="220" y2="210" stroke="#2D5A27" stroke-width="1"/>

  <!-- A: Pool (left foreground) -->
  <polygon points="70,310 135,294 135,342 70,358" fill="url(#poolAT)" opacity="0.88"/>
  <line x1="75" y1="316" x2="134" y2="300" stroke="white" stroke-width="1" opacity="0.3"/>
  <line x1="74" y1="330" x2="134" y2="314" stroke="white" stroke-width="1" opacity="0.25"/>
  <text x="102" y="330" text-anchor="middle" font-family="'DM Sans',sans-serif" font-size="8" font-weight="700" fill="white" opacity="0.85">POOL A</text>
  <!-- Pool coping -->
  <line x1="70" y1="310" x2="135" y2="294" stroke="#A8D8F0" stroke-width="1.5"/>

  <!-- Unit A badge -->
  <rect x="145" y="308" width="40" height="16" rx="3" fill="rgba(26,56,16,0.75)"/>
  <text x="165" y="320" text-anchor="middle" font-family="'DM Sans',sans-serif" font-size="8" font-weight="700" fill="white">UNIT A</text>


  <!-- ── UNIT B — RIGHT HALF ────────────────────────────── -->
  <!-- Unit B facade -->
  <rect x="405" y="105" width="260" height="238" rx="1" fill="url(#facadeB)" filter="url(#shadowT)"/>

  <!-- B: Floor 1 slab -->
  <rect x="405" y="208" width="260" height="8" fill="#DDDAD2"/>
  <!-- B: Roof band -->
  <rect x="405" y="100" width="260" height="10" fill="#2D5A27"/>
  <!-- B: Parapet crenellations -->
  <rect x="417" y="88" width="20" height="16" rx="1" fill="#2D5225"/>
  <rect x="447" y="88" width="20" height="16" rx="1" fill="#2D5225"/>
  <rect x="477" y="88" width="20" height="16" rx="1" fill="#2D5225"/>
  <rect x="507" y="88" width="20" height="16" rx="1" fill="#2D5225"/>
  <rect x="537" y="88" width="20" height="16" rx="1" fill="#2D5225"/>
  <rect x="567" y="88" width="20" height="16" rx="1" fill="#2D5225"/>
  <rect x="597" y="88" width="20" height="16" rx="1" fill="#2D5225"/>
  <rect x="627" y="88" width="20" height="16" rx="1" fill="#2D5225"/>
  <!-- Rooftop planter B -->
  <ellipse cx="490" cy="100" rx="20" ry="9" fill="#78BF42" opacity="0.70"/>
  <ellipse cx="590" cy="100" rx="22" ry="10" fill="#95CC58" opacity="0.75"/>

  <!-- B GF windows (mirrored) -->
  <rect x="441" y="220" width="60" height="82" rx="3" fill="#8BBFD8" opacity="0.65"/>
  <line x1="470" y1="220" x2="470" y2="302" stroke="white" stroke-width="1" opacity="0.5"/>
  <rect x="441" y="220" width="60" height="8" rx="1" fill="#E8E4DC" opacity="0.85"/>
  <rect x="520" y="220" width="65" height="82" rx="3" fill="#8BBFD8" opacity="0.65"/>
  <line x1="552" y1="220" x2="552" y2="302" stroke="white" stroke-width="1" opacity="0.5"/>
  <rect x="520" y="220" width="65" height="8" rx="1" fill="#E8E4DC" opacity="0.85"/>
  <!-- B GF Entry door (mirrored) -->
  <rect x="440" y="248" width="52" height="54" rx="2" fill="#7DAFC8" opacity="0.85"/>
  <polygon points="432,250 500,250 494,236 440,236" fill="#2D5A27" opacity="0.88"/>
  <line x1="465" y1="248" x2="465" y2="302" stroke="white" stroke-width="1" opacity="0.5"/>

  <!-- B F1 windows (mirrored) -->
  <rect x="441" y="118" width="60" height="82" rx="3" fill="#9BC8DC" opacity="0.58"/>
  <line x1="470" y1="118" x2="470" y2="200" stroke="white" stroke-width="1" opacity="0.5"/>
  <rect x="441" y="118" width="60" height="8" rx="1" fill="#E8E4DC" opacity="0.85"/>
  <rect x="519" y="118" width="65" height="82" rx="3" fill="#9BC8DC" opacity="0.58"/>
  <line x1="551" y1="118" x2="551" y2="200" stroke="white" stroke-width="1" opacity="0.5"/>
  <rect x="519" y="118" width="65" height="8" rx="1" fill="#E8E4DC" opacity="0.85"/>
  <!-- B F1 Master window (large) -->
  <rect x="412" y="115" width="22" height="88" rx="3" fill="#9BC8DC" opacity="0.55"/>

  <!-- B: Pool (right side) -->
  <polygon points="665,310 730,294 730,358 665,342" fill="url(#poolBT)" opacity="0.88"/>
  <line x1="671" y1="316" x2="729" y2="300" stroke="white" stroke-width="1" opacity="0.3"/>
  <line x1="670" y1="330" x2="729" y2="314" stroke="white" stroke-width="1" opacity="0.25"/>
  <text x="697" y="330" text-anchor="middle" font-family="'DM Sans',sans-serif" font-size="8" font-weight="700" fill="white" opacity="0.85">POOL B</text>
  <line x1="665" y1="310" x2="730" y2="294" stroke="#A8D8F0" stroke-width="1.5"/>

  <!-- Side face (far right) -->
  <polygon points="665,130 730,152 730,360 665,340" fill="url(#sideT)" filter="url(#shadowT)"/>
  <!-- Side windows B -->
  <rect x="688" y="162" width="30" height="50" rx="2" fill="#7DAFC8" opacity="0.45"/>
  <rect x="688" y="230" width="30" height="50" rx="2" fill="#7DAFC8" opacity="0.40"/>

  <!-- Unit B badge -->
  <rect x="619" y="308" width="40" height="16" rx="3" fill="rgba(45,90,39,0.75)"/>
  <text x="639" y="320" text-anchor="middle" font-family="'DM Sans',sans-serif" font-size="8" font-weight="700" fill="white">UNIT B</text>

  <!-- Party wall cap (visual separator) -->
  <rect x="393" y="100" width="14" height="242" fill="#C4C0B8" opacity="0.5"/>

  <!-- ── GARDEN / FOREGROUND ─────────────────────────────── -->
  <ellipse cx="40" cy="400" rx="36" ry="18" fill="#5A9040" opacity="0.8"/>
  <ellipse cx="760" cy="400" rx="36" ry="18" fill="#5A9040" opacity="0.78"/>
  <!-- Trees -->
  <rect x="30" y="310" width="7" height="90" fill="#6B4226"/>
  <ellipse cx="33" cy="298" rx="28" ry="34" fill="#4A8830" opacity="0.90"/>
  <ellipse cx="33" cy="287" rx="20" ry="24" fill="#5A9840" opacity="0.85"/>
  <rect x="760" y="308" width="7" height="92" fill="#6B4226"/>
  <ellipse cx="763" cy="295" rx="28" ry="34" fill="#4A8830" opacity="0.88"/>
  <ellipse cx="763" cy="284" rx="20" ry="24" fill="#5A9840" opacity="0.83"/>
  <!-- Center divider shrubs -->
  <ellipse cx="400" cy="402" rx="22" ry="12" fill="#6EAA4C" opacity="0.80"/>

  <!-- ── HEADER ─────────────────────────────────────────── -->
  <rect x="0" y="0" width="800" height="52" fill="rgba(26,56,16,0.84)"/>
  <text x="24" y="20" font-family="'DM Sans',sans-serif" font-size="8" font-weight="600" fill="#78BF42" letter-spacing="3">DEDDEH HILLS</text>
  <text x="24" y="40" font-family="'DM Sans',sans-serif" font-size="16" font-weight="700" fill="white">Twin Villa — Two Semi-Detached Units with Private Pools</text>
  <text x="776" y="20" text-anchor="end" font-family="'DM Sans',sans-serif" font-size="8" fill="rgba(255,255,255,0.5)">OPG + GF + F1 · 3 beds/unit · ~260 m² BUA/unit</text>
  <text x="776" y="38" text-anchor="end" font-family="'DM Sans',sans-serif" font-size="10" fill="rgba(255,255,255,0.7)">Koura, Lebanon</text>

  <!-- ── CAPTION BAR ─────────────────────────────────────── -->
  <rect x="0" y="508" width="800" height="52" fill="rgba(26,56,16,0.78)"/>
  <text x="24" y="527" font-family="'DM Sans',sans-serif" font-size="10" font-weight="600" fill="#78BF42">Each unit: Garage · Salon · Sitting · Dining · Kitchen · Guest WC · Maid · Laundry · Pool Terrace</text>
  <text x="24" y="543" font-family="'DM Sans',sans-serif" font-size="9" fill="rgba(255,255,255,0.7)">First Floor: Master Suite (dressing + en-suite) · 2 Bedrooms · Shared Bath · Terrace over pool · Private outdoor spaces</text>
  <text x="776" y="540" text-anchor="end" font-family="'DM Sans',sans-serif" font-size="8" fill="rgba(255,255,255,0.4)">Illustrative rendering only</text>

</svg>
