<svg xmlns="http://www.w3.org/2000/svg" viewBox="0 0 700 900">
  <defs>
    <pattern id="poolTwin0" patternUnits="userSpaceOnUse" width="10" height="10">
      <line x1="0" y1="10" x2="10" y2="0" stroke="#7DC8E8" stroke-width="0.8" opacity="0.5"/>
    </pattern>
    <pattern id="parkingTwin0" patternUnits="userSpaceOnUse" width="12" height="8">
      <line x1="0" y1="0" x2="12" y2="0" stroke="#C8C4BC" stroke-width="0.5" opacity="0.4"/>
    </pattern>
    <pattern id="tileTwin0" patternUnits="userSpaceOnUse" width="12" height="12">
      <rect width="12" height="12" fill="none" stroke="#E0DDD6" stroke-width="0.4"/>
    </pattern>
    <linearGradient id="poolFillTwin" x1="0" y1="0" x2="0" y2="1">
      <stop offset="0%" stop-color="#5BB8D8" stop-opacity="0.85"/>
      <stop offset="100%" stop-color="#3A90B8" stop-opacity="0.85"/>
    </linearGradient>
  </defs>

  <!-- Background -->
  <rect width="700" height="900" fill="#FAFAF9"/>

  <!-- Header bar -->
  <rect x="0" y="0" width="700" height="72" fill="#1A3810"/>
  <text x="30" y="26" font-family="'DM Sans',sans-serif" font-size="9" font-weight="600" fill="#78BF42" letter-spacing="3">DEDDEH HILLS</text>
  <text x="30" y="48" font-family="'DM Sans',sans-serif" font-size="18" font-weight="700" fill="white">Twin Villa — Ground Floor (GF)</text>
  <text x="30" y="63" font-family="'DM Sans',sans-serif" font-size="9" fill="rgba(255,255,255,0.5)">Villa Type 04 · 2 semi-detached units · OPG + GF + F1 · ~520 m² BUA</text>
  <text x="670" y="48" text-anchor="end" font-family="'DM Sans',sans-serif" font-size="10" fill="rgba(255,255,255,0.6)">GF BUA ≈ 200 m²</text>

  <!-- Road / boundary -->
  <rect x="0" y="82" width="700" height="30" fill="#E8E4DC"/>
  <line x1="0" y1="97" x2="700" y2="97" stroke="white" stroke-width="1.5" stroke-dasharray="18,10" opacity="0.5"/>
  <text x="350" y="93" text-anchor="middle" font-family="'DM Sans',sans-serif" font-size="8" fill="#9CA3AF" letter-spacing="3">MAIN ROAD</text>

  <!-- Entry arrow from road -->
  <polygon points="350,115 340,102 360,102" fill="#1A3810" opacity="0.7"/>
  <text x="350" y="130" text-anchor="middle" font-family="'DM Sans',sans-serif" font-size="8" fill="#4B5563">SHARED ENTRY</text>

  <!-- ── PARTY WALL (center divider) ───────────────────── -->
  <rect x="346" y="112" width="8" height="740" fill="#4A5568" opacity="0.6"/>
  <text x="350" y="825" text-anchor="middle" font-family="'DM Sans',sans-serif" font-size="7" fill="#9CA3AF" opacity="0.7">PARTY WALL</text>

  <!-- ═══════════════════════════════════════════════════ -->
  <!-- UNIT A (left half)                                  -->
  <!-- ═══════════════════════════════════════════════════ -->
  <rect x="42" y="112" width="304" height="740" rx="2" fill="none" stroke="#2D3748" stroke-width="2.5"/>

  <!-- A: OPG / PARKING (top section, covered) -->
  <rect x="42" y="112" width="304" height="130" fill="url(#parkingTwin0)" stroke="#2D3748" stroke-width="1.5"/>
  <rect x="42" y="112" width="304" height="130" fill="#F0EDE8" opacity="0.5"/>
  <!-- Parking spaces (2 cars) -->
  <rect x="58" y="122" width="100" height="50" rx="2" fill="none" stroke="#9CA3AF" stroke-width="1.2"/>
  <rect x="64" y="126" width="88" height="42" rx="2" fill="#E8E4DC" opacity="0.6"/>
  <text x="108" y="151" text-anchor="middle" font-family="'DM Sans',sans-serif" font-size="8" fill="#6B7280">CAR</text>
  <rect x="176" y="122" width="100" height="50" rx="2" fill="none" stroke="#9CA3AF" stroke-width="1.2"/>
  <rect x="182" y="126" width="88" height="42" rx="2" fill="#E8E4DC" opacity="0.6"/>
  <text x="226" y="151" text-anchor="middle" font-family="'DM Sans',sans-serif" font-size="8" fill="#6B7280">CAR</text>
  <!-- OPG gate -->
  <line x1="42" y1="112" x2="346" y2="112" stroke="#374151" stroke-width="2.5"/>
  <rect x="160" y="103" width="50" height="16" rx="2" fill="#374151"/>
  <text x="185" y="115" text-anchor="middle" font-family="'DM Sans',sans-serif" font-size="7" font-weight="600" fill="white">GATE</text>
  <text x="194" y="202" text-anchor="middle" font-family="'DM Sans',sans-serif" font-size="9" font-weight="600" fill="#374151">OPG · PARKING</text>
  <text x="194" y="216" text-anchor="middle" font-family="'DM Sans',sans-serif" font-size="8" fill="#6B7280">~50 m²</text>
  <!-- Stair up to GF from OPG -->
  <rect x="308" y="170" width="34" height="60" fill="#F4F0E8" stroke="#6B7280" stroke-width="1"/>
  <line x1="308" y1="180" x2="342" y2="180" stroke="#9CA3AF" stroke-width="1"/>
  <line x1="308" y1="190" x2="342" y2="190" stroke="#9CA3AF" stroke-width="1"/>
  <line x1="308" y1="200" x2="342" y2="200" stroke="#9CA3AF" stroke-width="1"/>
  <line x1="308" y1="210" x2="342" y2="210" stroke="#9CA3AF" stroke-width="1"/>
  <line x1="308" y1="220" x2="342" y2="220" stroke="#9CA3AF" stroke-width="1"/>
  <polygon points="325,228 319,218 331,218" fill="#78BF42" opacity="0.8"/>
  <text x="325" y="240" text-anchor="middle" font-family="'DM Sans',sans-serif" font-size="6" fill="#2D5A27">UP TO GF</text>

  <!-- A: SWIMMING POOL (left-center, prominent) -->
  <rect x="50" y="252" width="160" height="200" rx="4" fill="url(#poolFillTwin)"/>
  <!-- Pool shimmer -->
  <line x1="58" y1="275" x2="200" y2="275" stroke="white" stroke-width="1" opacity="0.3"/>
  <line x1="56" y1="308" x2="202" y2="308" stroke="white" stroke-width="1" opacity="0.25"/>
  <line x1="55" y1="342" x2="203" y2="342" stroke="white" stroke-width="1" opacity="0.22"/>
  <line x1="54" y1="376" x2="204" y2="376" stroke="white" stroke-width="1" opacity="0.2"/>
  <text x="130" y="355" text-anchor="middle" font-family="'DM Sans',sans-serif" font-size="11" font-weight="700" fill="white" opacity="0.9">POOL</text>
  <text x="130" y="370" text-anchor="middle" font-family="'DM Sans',sans-serif" font-size="9" fill="rgba(255,255,255,0.75)">~35 m²</text>
  <!-- Pool deck -->
  <rect x="50" y="248" width="160" height="8" rx="1" fill="#A8D8F0" opacity="0.6"/>
  <rect x="50" y="448" width="160" height="8" rx="1" fill="#A8D8F0" opacity="0.6"/>

  <!-- A: POOL TERRACE / GARDEN -->
  <rect x="42" y="256" width="10" height="200" fill="#EAF4E0" stroke="#2D3748" stroke-width="1"/>

  <!-- A: ENTRY / LOBBY -->
  <rect x="218" y="252" width="124" height="60" fill="#F4F0E8" stroke="#2D3748" stroke-width="1.5"/>
  <!-- Entry door arc -->
  <line x1="280" y1="252" x2="340" y2="252" stroke="#E8E4DC" stroke-width="2"/>
  <path d="M280,252 A60,60 0 0,1 280,312" fill="none" stroke="#9CA3AF" stroke-width="1" stroke-dasharray="3,2" opacity="0.5"/>
  <text x="270" y="285" text-anchor="middle" font-family="'DM Sans',sans-serif" font-size="9" font-weight="600" fill="#374151">ENTRY / HALL</text>

  <!-- A: SALON -->
  <rect x="218" y="312" width="124" height="130" fill="url(#tileTwin0)" stroke="#2D3748" stroke-width="1.5"/>
  <rect x="218" y="312" width="124" height="130" fill="#FFF8F0" opacity="0.5"/>
  <!-- Sofa -->
  <rect x="228" y="328" width="70" height="35" rx="4" fill="#DDD0C0" stroke="#B0A090" stroke-width="1"/>
  <rect x="228" y="363" width="30" height="24" rx="3" fill="#DDD0C0" stroke="#B0A090" stroke-width="1"/>
  <rect x="264" y="363" width="30" height="24" rx="3" fill="#DDD0C0" stroke="#B0A090" stroke-width="1"/>
  <!-- Coffee table -->
  <rect x="248" y="393" width="40" height="24" rx="2" fill="#E8DDD0" stroke="#C0B0A0" stroke-width="0.8"/>
  <text x="280" y="420" text-anchor="middle" font-family="'DM Sans',sans-serif" font-size="9" font-weight="600" fill="#374151">SALON</text>
  <text x="280" y="433" text-anchor="middle" font-family="'DM Sans',sans-serif" font-size="8" fill="#6B7280">~38 m²</text>

  <!-- A: SITTING ROOM -->
  <rect x="42" y="456" width="160" height="110" fill="#FFF8F0" stroke="#2D3748" stroke-width="1.5"/>
  <!-- Armchairs -->
  <rect x="56" y="470" width="55" height="36" rx="4" fill="#DDD0C0" stroke="#B0A090" stroke-width="1"/>
  <rect x="120" y="470" width="55" height="36" rx="4" fill="#DDD0C0" stroke="#B0A090" stroke-width="1"/>
  <text x="122" y="540" text-anchor="middle" font-family="'DM Sans',sans-serif" font-size="9" font-weight="600" fill="#374151">SITTING</text>
  <text x="122" y="553" text-anchor="middle" font-family="'DM Sans',sans-serif" font-size="8" fill="#6B7280">~22 m²</text>

  <!-- A: DINING -->
  <rect x="218" y="442" width="124" height="100" fill="#FFF8F0" stroke="#2D3748" stroke-width="1.5"/>
  <!-- Dining table -->
  <ellipse cx="280" cy="494" rx="40" ry="28" fill="#E8DDD0" stroke="#C0B0A0" stroke-width="1"/>
  <!-- Chairs around table -->
  <rect x="254" y="461" width="18" height="12" rx="2" fill="#D8CEBE"/>
  <rect x="286" y="461" width="18" height="12" rx="2" fill="#D8CEBE"/>
  <rect x="250" y="510" width="18" height="12" rx="2" fill="#D8CEBE"/>
  <rect x="288" y="510" width="18" height="12" rx="2" fill="#D8CEBE"/>
  <rect x="228" y="487" width="14" height="14" rx="2" fill="#D8CEBE"/>
  <rect x="316" y="487" width="14" height="14" rx="2" fill="#D8CEBE"/>
  <text x="280" y="504" text-anchor="middle" font-family="'DM Sans',sans-serif" font-size="8" fill="#6B7280">DINING</text>
  <text x="280" y="534" text-anchor="middle" font-family="'DM Sans',sans-serif" font-size="8" fill="#6B7280">~22 m²</text>

  <!-- A: KITCHEN -->
  <rect x="42" y="566" width="170" height="100" fill="#F8F8F4" stroke="#2D3748" stroke-width="1.5"/>
  <!-- L-shaped counter -->
  <rect x="52" y="576" width="150" height="18" rx="2" fill="#D0CCC0" stroke="#B8B4A8" stroke-width="1"/>
  <rect x="52" y="576" width="18" height="80" rx="2" fill="#D0CCC0" stroke="#B8B4A8" stroke-width="1"/>
  <!-- Sink on counter -->
  <rect x="120" y="578" width="26" height="14" rx="2" fill="#C8E0F8" stroke="#7DAFC8" stroke-width="0.8"/>
  <!-- Cooker top -->
  <rect x="76" y="578" width="32" height="14" rx="1" fill="#B8B4A8"/>
  <circle cx="84" cy="585" r="4" fill="#9CA3AF"/>
  <circle cx="100" cy="585" r="4" fill="#9CA3AF"/>
  <text x="137" y="640" text-anchor="middle" font-family="'DM Sans',sans-serif" font-size="9" font-weight="600" fill="#374151">KITCHEN</text>
  <text x="137" y="653" text-anchor="middle" font-family="'DM Sans',sans-serif" font-size="8" fill="#6B7280">~22 m²</text>

  <!-- A: GUEST WC -->
  <rect x="212" y="542" width="80" height="80" fill="#EEF6FE" stroke="#2D3748" stroke-width="1.5"/>
  <ellipse cx="252" cy="560" rx="11" ry="15" fill="#C8E0F8" stroke="#7DAFC8" stroke-width="1"/>
  <rect x="246" y="546" width="12" height="6" rx="2" fill="#B8D4F0"/>
  <rect x="218" y="582" width="22" height="17" rx="3" fill="#C8E0F8" stroke="#7DAFC8" stroke-width="1"/>
  <text x="252" y="600" text-anchor="middle" font-family="'DM Sans',sans-serif" font-size="8" font-weight="600" fill="#4A90B8">GUEST WC</text>

  <!-- A: MAID + LAUNDRY -->
  <rect x="42" y="666" width="170" height="100" fill="#F4F0E8" stroke="#2D3748" stroke-width="1.5"/>
  <rect x="52" y="676" width="60" height="50" rx="2" fill="#E8E4DC" stroke="#C0C0B8" stroke-width="1"/>
  <text x="82" y="705" text-anchor="middle" font-family="'DM Sans',sans-serif" font-size="7" fill="#6B7280">MAID</text>
  <rect x="122" y="676" width="80" height="50" rx="2" fill="#E8E4DC" stroke="#C0C0B8" stroke-width="1"/>
  <text x="162" y="705" text-anchor="middle" font-family="'DM Sans',sans-serif" font-size="7" fill="#6B7280">LAUNDRY</text>
  <text x="127" y="750" text-anchor="middle" font-family="'DM Sans',sans-serif" font-size="8" fill="#9CA3AF">service zone</text>

  <!-- Unit A label -->
  <rect x="50" y="775" width="36" height="18" rx="3" fill="#1A3810"/>
  <text x="68" y="788" text-anchor="middle" font-family="'DM Sans',sans-serif" font-size="9" font-weight="700" fill="white">UNIT A</text>


  <!-- ═══════════════════════════════════════════════════ -->
  <!-- UNIT B (right half — mirror of A)                   -->
  <!-- ═══════════════════════════════════════════════════ -->
  <rect x="354" y="112" width="304" height="740" rx="2" fill="none" stroke="#2D3748" stroke-width="2.5"/>

  <!-- B: OPG / PARKING -->
  <rect x="354" y="112" width="304" height="130" fill="url(#parkingTwin0)" stroke="#2D3748" stroke-width="1.5"/>
  <rect x="354" y="112" width="304" height="130" fill="#F0EDE8" opacity="0.5"/>
  <rect x="360" y="122" width="100" height="50" rx="2" fill="none" stroke="#9CA3AF" stroke-width="1.2"/>
  <rect x="366" y="126" width="88" height="42" rx="2" fill="#E8E4DC" opacity="0.6"/>
  <text x="410" y="151" text-anchor="middle" font-family="'DM Sans',sans-serif" font-size="8" fill="#6B7280">CAR</text>
  <rect x="478" y="122" width="100" height="50" rx="2" fill="none" stroke="#9CA3AF" stroke-width="1.2"/>
  <rect x="484" y="126" width="88" height="42" rx="2" fill="#E8E4DC" opacity="0.6"/>
  <text x="528" y="151" text-anchor="middle" font-family="'DM Sans',sans-serif" font-size="8" fill="#6B7280">CAR</text>
  <!-- Gate -->
  <rect x="492" y="103" width="50" height="16" rx="2" fill="#374151"/>
  <text x="517" y="115" text-anchor="middle" font-family="'DM Sans',sans-serif" font-size="7" font-weight="600" fill="white">GATE</text>
  <text x="506" y="202" text-anchor="middle" font-family="'DM Sans',sans-serif" font-size="9" font-weight="600" fill="#374151">OPG · PARKING</text>
  <text x="506" y="216" text-anchor="middle" font-family="'DM Sans',sans-serif" font-size="8" fill="#6B7280">~50 m²</text>
  <rect x="354" y="170" width="34" height="60" fill="#F4F0E8" stroke="#6B7280" stroke-width="1"/>
  <line x1="354" y1="180" x2="388" y2="180" stroke="#9CA3AF" stroke-width="1"/>
  <line x1="354" y1="190" x2="388" y2="190" stroke="#9CA3AF" stroke-width="1"/>
  <line x1="354" y1="200" x2="388" y2="200" stroke="#9CA3AF" stroke-width="1"/>
  <line x1="354" y1="210" x2="388" y2="210" stroke="#9CA3AF" stroke-width="1"/>
  <line x1="354" y1="220" x2="388" y2="220" stroke="#9CA3AF" stroke-width="1"/>
  <polygon points="371,228 365,218 377,218" fill="#78BF42" opacity="0.8"/>
  <text x="371" y="240" text-anchor="middle" font-family="'DM Sans',sans-serif" font-size="6" fill="#2D5A27">UP TO GF</text>

  <!-- B: SWIMMING POOL (right side — mirrored) -->
  <rect x="490" y="252" width="160" height="200" rx="4" fill="url(#poolFillTwin)"/>
  <line x1="498" y1="275" x2="642" y2="275" stroke="white" stroke-width="1" opacity="0.3"/>
  <line x1="496" y1="308" x2="644" y2="308" stroke="white" stroke-width="1" opacity="0.25"/>
  <line x1="494" y1="342" x2="646" y2="342" stroke="white" stroke-width="1" opacity="0.22"/>
  <line x1="493" y1="376" x2="647" y2="376" stroke="white" stroke-width="1" opacity="0.2"/>
  <text x="570" y="355" text-anchor="middle" font-family="'DM Sans',sans-serif" font-size="11" font-weight="700" fill="white" opacity="0.9">POOL</text>
  <text x="570" y="370" text-anchor="middle" font-family="'DM Sans',sans-serif" font-size="9" fill="rgba(255,255,255,0.75)">~35 m²</text>
  <rect x="490" y="248" width="160" height="8" rx="1" fill="#A8D8F0" opacity="0.6"/>
  <rect x="490" y="448" width="160" height="8" rx="1" fill="#A8D8F0" opacity="0.6"/>
  <rect x="648" y="256" width="10" height="200" fill="#EAF4E0" stroke="#2D3748" stroke-width="1"/>

  <!-- B: ENTRY / LOBBY (mirrored) -->
  <rect x="358" y="252" width="124" height="60" fill="#F4F0E8" stroke="#2D3748" stroke-width="1.5"/>
  <text x="420" y="285" text-anchor="middle" font-family="'DM Sans',sans-serif" font-size="9" font-weight="600" fill="#374151">ENTRY / HALL</text>

  <!-- B: SALON (mirrored) -->
  <rect x="358" y="312" width="124" height="130" fill="url(#tileTwin0)" stroke="#2D3748" stroke-width="1.5"/>
  <rect x="358" y="312" width="124" height="130" fill="#FFF8F0" opacity="0.5"/>
  <rect x="368" y="328" width="70" height="35" rx="4" fill="#DDD0C0" stroke="#B0A090" stroke-width="1"/>
  <rect x="368" y="363" width="30" height="24" rx="3" fill="#DDD0C0" stroke="#B0A090" stroke-width="1"/>
  <rect x="404" y="363" width="30" height="24" rx="3" fill="#DDD0C0" stroke="#B0A090" stroke-width="1"/>
  <rect x="388" y="393" width="40" height="24" rx="2" fill="#E8DDD0" stroke="#C0B0A0" stroke-width="0.8"/>
  <text x="420" y="420" text-anchor="middle" font-family="'DM Sans',sans-serif" font-size="9" font-weight="600" fill="#374151">SALON</text>
  <text x="420" y="433" text-anchor="middle" font-family="'DM Sans',sans-serif" font-size="8" fill="#6B7280">~38 m²</text>

  <!-- B: SITTING ROOM (mirrored) -->
  <rect x="498" y="456" width="160" height="110" fill="#FFF8F0" stroke="#2D3748" stroke-width="1.5"/>
  <rect x="512" y="470" width="55" height="36" rx="4" fill="#DDD0C0" stroke="#B0A090" stroke-width="1"/>
  <rect x="576" y="470" width="55" height="36" rx="4" fill="#DDD0C0" stroke="#B0A090" stroke-width="1"/>
  <text x="578" y="540" text-anchor="middle" font-family="'DM Sans',sans-serif" font-size="9" font-weight="600" fill="#374151">SITTING</text>
  <text x="578" y="553" text-anchor="middle" font-family="'DM Sans',sans-serif" font-size="8" fill="#6B7280">~22 m²</text>

  <!-- B: DINING (mirrored) -->
  <rect x="358" y="442" width="124" height="100" fill="#FFF8F0" stroke="#2D3748" stroke-width="1.5"/>
  <ellipse cx="420" cy="494" rx="40" ry="28" fill="#E8DDD0" stroke="#C0B0A0" stroke-width="1"/>
  <rect x="394" y="461" width="18" height="12" rx="2" fill="#D8CEBE"/>
  <rect x="426" y="461" width="18" height="12" rx="2" fill="#D8CEBE"/>
  <rect x="390" y="510" width="18" height="12" rx="2" fill="#D8CEBE"/>
  <rect x="428" y="510" width="18" height="12" rx="2" fill="#D8CEBE"/>
  <rect x="358" y="487" width="14" height="14" rx="2" fill="#D8CEBE"/>
  <rect x="456" y="487" width="14" height="14" rx="2" fill="#D8CEBE"/>
  <text x="420" y="504" text-anchor="middle" font-family="'DM Sans',sans-serif" font-size="8" fill="#6B7280">DINING</text>
  <text x="420" y="534" text-anchor="middle" font-family="'DM Sans',sans-serif" font-size="8" fill="#6B7280">~22 m²</text>

  <!-- B: KITCHEN (mirrored) -->
  <rect x="488" y="566" width="170" height="100" fill="#F8F8F4" stroke="#2D3748" stroke-width="1.5"/>
  <rect x="498" y="576" width="150" height="18" rx="2" fill="#D0CCC0" stroke="#B8B4A8" stroke-width="1"/>
  <rect x="630" y="576" width="18" height="80" rx="2" fill="#D0CCC0" stroke="#B8B4A8" stroke-width="1"/>
  <rect x="554" y="578" width="26" height="14" rx="2" fill="#C8E0F8" stroke="#7DAFC8" stroke-width="0.8"/>
  <rect x="510" y="578" width="32" height="14" rx="1" fill="#B8B4A8"/>
  <circle cx="518" cy="585" r="4" fill="#9CA3AF"/>
  <circle cx="534" cy="585" r="4" fill="#9CA3AF"/>
  <text x="563" y="640" text-anchor="middle" font-family="'DM Sans',sans-serif" font-size="9" font-weight="600" fill="#374151">KITCHEN</text>
  <text x="563" y="653" text-anchor="middle" font-family="'DM Sans',sans-serif" font-size="8" fill="#6B7280">~22 m²</text>

  <!-- B: GUEST WC (mirrored) -->
  <rect x="408" y="542" width="80" height="80" fill="#EEF6FE" stroke="#2D3748" stroke-width="1.5"/>
  <ellipse cx="448" cy="560" rx="11" ry="15" fill="#C8E0F8" stroke="#7DAFC8" stroke-width="1"/>
  <rect x="442" y="546" width="12" height="6" rx="2" fill="#B8D4F0"/>
  <rect x="460" y="582" width="22" height="17" rx="3" fill="#C8E0F8" stroke="#7DAFC8" stroke-width="1"/>
  <text x="448" y="600" text-anchor="middle" font-family="'DM Sans',sans-serif" font-size="8" font-weight="600" fill="#4A90B8">GUEST WC</text>

  <!-- B: MAID + LAUNDRY (mirrored) -->
  <rect x="488" y="666" width="170" height="100" fill="#F4F0E8" stroke="#2D3748" stroke-width="1.5"/>
  <rect x="498" y="676" width="60" height="50" rx="2" fill="#E8E4DC" stroke="#C0C0B8" stroke-width="1"/>
  <text x="528" y="705" text-anchor="middle" font-family="'DM Sans',sans-serif" font-size="7" fill="#6B7280">MAID</text>
  <rect x="566" y="676" width="80" height="50" rx="2" fill="#E8E4DC" stroke="#C0C0B8" stroke-width="1"/>
  <text x="606" y="705" text-anchor="middle" font-family="'DM Sans',sans-serif" font-size="7" fill="#6B7280">LAUNDRY</text>
  <text x="573" y="750" text-anchor="middle" font-family="'DM Sans',sans-serif" font-size="8" fill="#9CA3AF">service zone</text>

  <!-- Unit B label -->
  <rect x="614" y="775" width="36" height="18" rx="3" fill="#2D5A27"/>
  <text x="632" y="788" text-anchor="middle" font-family="'DM Sans',sans-serif" font-size="9" font-weight="700" fill="white">UNIT B</text>

  <!-- ── AREA BADGE ─────────────────────────────────────── -->
  <rect x="30" y="808" width="140" height="52" rx="8" fill="rgba(26,56,16,0.88)"/>
  <text x="100" y="830" text-anchor="middle" font-family="'DM Sans',sans-serif" font-size="9" fill="#78BF42" letter-spacing="1">FLOOR AREA</text>
  <text x="100" y="850" text-anchor="middle" font-family="'DM Sans',sans-serif" font-size="16" font-weight="700" fill="white">2 × 100 m²</text>

  <!-- ── NORTH ARROW ────────────────────────────────────── -->
  <g transform="translate(645,828)">
    <circle cx="0" cy="0" r="18" fill="white" stroke="#D1D5DB" stroke-width="1.5"/>
    <polygon points="0,-13 -4,5 0,0 4,5" fill="#1A3810"/>
    <polygon points="0,0 -4,5 0,13 4,5" fill="#9CA3AF"/>
    <text x="0" y="27" text-anchor="middle" font-family="'DM Sans',sans-serif" font-size="8" font-weight="700" fill="#374151">N</text>
  </g>

  <!-- ── FOOTER LEGEND ─────────────────────────────────── -->
  <rect x="186" y="808" width="430" height="52" rx="6" fill="#F4F9EF" stroke="#E5E7EB" stroke-width="1"/>
  <rect x="196" y="818" width="12" height="12" rx="2" fill="#FFF8F0" stroke="#2D3748" stroke-width="1"/>
  <text x="214" y="828" font-family="'DM Sans',sans-serif" font-size="8" fill="#374151">Habitable</text>
  <rect x="260" y="818" width="12" height="12" rx="2" fill="url(#poolFillTwin)" stroke="#7DAFC8" stroke-width="1"/>
  <text x="278" y="828" font-family="'DM Sans',sans-serif" font-size="8" fill="#374151">Pool</text>
  <rect x="310" y="818" width="12" height="12" rx="2" fill="#EEF6FE" stroke="#7DAFC8" stroke-width="1"/>
  <text x="328" y="828" font-family="'DM Sans',sans-serif" font-size="8" fill="#374151">Wet rooms</text>
  <rect x="390" y="818" width="12" height="12" rx="2" fill="#F0EDE8" stroke="#9CA3AF" stroke-width="1"/>
  <text x="408" y="828" font-family="'DM Sans',sans-serif" font-size="8" fill="#374151">Parking (OPG)</text>
  <rect x="490" y="818" width="12" height="12" rx="2" fill="#F4F0E8" stroke="#6B7280" stroke-width="1"/>
  <text x="508" y="828" font-family="'DM Sans',sans-serif" font-size="8" fill="#374151">Service zone</text>
  <text x="396" y="852" text-anchor="middle" font-family="'DM Sans',sans-serif" font-size="8" fill="#9CA3AF">Deddeh Hills · Twin Villa · GF · Two mirrored semi-detached units · Illustrative only</text>

</svg>
