<svg xmlns="http://www.w3.org/2000/svg" viewBox="0 0 700 900">
  <defs>
    <pattern id="tile3f2" patternUnits="userSpaceOnUse" width="12" height="12">
      <rect width="12" height="12" fill="none" stroke="#E0DDD6" stroke-width="0.4"/>
    </pattern>
    <pattern id="parquet3f2" patternUnits="userSpaceOnUse" width="20" height="10">
      <rect width="20" height="10" fill="none" stroke="#C8B89A" stroke-width="0.4"/>
      <line x1="10" y1="0" x2="10" y2="10" stroke="#C8B89A" stroke-width="0.3"/>
    </pattern>
  </defs>

  <!-- Background -->
  <rect width="700" height="900" fill="#FAFAF9"/>

  <!-- Header bar -->
  <rect x="0" y="0" width="700" height="72" fill="#1A3810"/>
  <text x="30" y="26" font-family="'DM Sans',sans-serif" font-size="9" font-weight="600" fill="#78BF42" letter-spacing="3">DEDDEH HILLS</text>
  <text x="30" y="48" font-family="'DM Sans',sans-serif" font-size="18" font-weight="700" fill="white">Villa 3F — Second Floor (F2)</text>
  <text x="30" y="63" font-family="'DM Sans',sans-serif" font-size="9" fill="rgba(255,255,255,0.5)">Villa Type 01 · B1 + GF + F1 + F2 · ~665 m² BUA</text>
  <text x="670" y="48" text-anchor="end" font-family="'DM Sans',sans-serif" font-size="10" fill="rgba(255,255,255,0.6)">F2 BUA ≈ 395 m²</text>

  <!-- ── BUILDING SHELL ────────────────────────────────── -->
  <rect x="60" y="100" width="580" height="680" rx="2" fill="none" stroke="#2D3748" stroke-width="3"/>

  <!-- ── ROOF TERRACE / BALCONY (top of void, left) ──── -->
  <rect x="60" y="100" width="260" height="160" fill="#EAF4E0" stroke="#2D3748" stroke-width="1.5"/>
  <!-- Railing -->
  <rect x="60" y="100" width="260" height="160" fill="none" stroke="#78BF42" stroke-width="1.2" stroke-dasharray="6,3" opacity="0.5"/>
  <line x1="64" y1="104" x2="316" y2="104" stroke="#78BF42" stroke-width="1.5" opacity="0.7"/>
  <line x1="64" y1="256" x2="316" y2="256" stroke="#78BF42" stroke-width="1.5" opacity="0.7"/>
  <!-- Planters -->
  <rect x="72" y="108" width="32" height="10" rx="2" fill="#5A9040" opacity="0.7"/>
  <rect x="114" y="108" width="32" height="10" rx="2" fill="#5A9040" opacity="0.7"/>
  <rect x="156" y="108" width="32" height="10" rx="2" fill="#5A9040" opacity="0.7"/>
  <rect x="198" y="108" width="32" height="10" rx="2" fill="#5A9040" opacity="0.7"/>
  <rect x="240" y="108" width="32" height="10" rx="2" fill="#5A9040" opacity="0.7"/>
  <text x="190" y="183" text-anchor="middle" font-family="'DM Sans',sans-serif" font-size="11" font-weight="600" fill="#2D5A27">ROOF BALCONY</text>
  <text x="190" y="199" text-anchor="middle" font-family="'DM Sans',sans-serif" font-size="9" fill="#6AAB50">~42 m²</text>
  <text x="190" y="213" text-anchor="middle" font-family="'DM Sans',sans-serif" font-size="8" fill="#9CA3AF">over living / void</text>

  <!-- ── MAIN MASTER BEDROOM (large, bottom-left) ──────── -->
  <rect x="60" y="360" width="320" height="240" fill="url(#parquet3f2)" stroke="#2D3748" stroke-width="1.5"/>
  <rect x="60" y="360" width="320" height="240" fill="#FFF8F0" opacity="0.5"/>
  <!-- King bed -->
  <rect x="110" y="390" width="130" height="80" rx="4" fill="#E8DDD0" stroke="#C0B0A0" stroke-width="1.5"/>
  <rect x="110" y="390" width="130" height="24" rx="3" fill="#D4C8B8"/>
  <!-- Pillows -->
  <ellipse cx="143" cy="406" rx="14" ry="8" fill="#F0EBE0" stroke="#D8D0C4" stroke-width="0.8"/>
  <ellipse cx="175" cy="406" rx="14" ry="8" fill="#F0EBE0" stroke="#D8D0C4" stroke-width="0.8"/>
  <ellipse cx="207" cy="406" rx="12" ry="7" fill="#F0EBE0" stroke="#D8D0C4" stroke-width="0.8"/>
  <!-- Bedside tables -->
  <rect x="100" y="395" width="22" height="22" rx="2" fill="#DDD0C0" stroke="#C0B0A0" stroke-width="1"/>
  <rect x="246" y="395" width="22" height="22" rx="2" fill="#DDD0C0" stroke="#C0B0A0" stroke-width="1"/>
  <!-- Dresser -->
  <rect x="76" y="400" width="28" height="60" rx="2" fill="#DDD4C0" stroke="#C0B8A8" stroke-width="1"/>
  <!-- Armchair corner -->
  <rect x="310" y="400" width="35" height="30" rx="3" fill="#D8D0C0" stroke="#B8B0A8" stroke-width="1"/>
  <text x="220" y="530" text-anchor="middle" font-family="'DM Sans',sans-serif" font-size="11" font-weight="700" fill="#374151">MAIN MASTER</text>
  <text x="220" y="546" text-anchor="middle" font-family="'DM Sans',sans-serif" font-size="9" fill="#6B7280">BEDROOM · ~65 m²</text>

  <!-- ── MAIN MASTER DRESSING ────────────────────────────── -->
  <rect x="60" y="600" width="160" height="120" fill="#F8F4EA" stroke="#2D3748" stroke-width="1.5"/>
  <!-- Built-in wardrobes -->
  <rect x="70" y="612" width="130" height="20" rx="2" fill="#D8D0C0" stroke="#C0B8A8" stroke-width="1"/>
  <line x1="113" y1="612" x2="113" y2="632" stroke="#B8B0A0" stroke-width="0.8"/>
  <line x1="156" y1="612" x2="156" y2="632" stroke="#B8B0A0" stroke-width="0.8"/>
  <rect x="70" y="636" width="130" height="20" rx="2" fill="#D8D0C0" stroke="#C0B8A8" stroke-width="1"/>
  <line x1="113" y1="636" x2="113" y2="656" stroke="#B8B0A0" stroke-width="0.8"/>
  <rect x="70" y="660" width="130" height="20" rx="2" fill="#D8D0C0" stroke="#C0B8A8" stroke-width="1"/>
  <text x="140" y="700" text-anchor="middle" font-family="'DM Sans',sans-serif" font-size="10" font-weight="600" fill="#374151">DRESSING</text>
  <text x="140" y="714" text-anchor="middle" font-family="'DM Sans',sans-serif" font-size="9" fill="#6B7280">~22 m²</text>

  <!-- ── MAIN MASTER BATHROOM ───────────────────────────── -->
  <rect x="220" y="600" width="160" height="120" fill="#EEF6FE" stroke="#2D3748" stroke-width="1.5"/>
  <!-- Bath tub -->
  <rect x="234" y="612" width="55" height="35" rx="8" fill="#C8E0F8" stroke="#7DAFC8" stroke-width="1.5"/>
  <ellipse cx="261" cy="629" rx="20" ry="12" fill="#B0D0F0" opacity="0.6"/>
  <!-- Double basin -->
  <rect x="234" y="656" width="26" height="20" rx="3" fill="#C8E0F8" stroke="#7DAFC8" stroke-width="1"/>
  <circle cx="247" cy="666" r="3" fill="#A0C8E8"/>
  <rect x="266" y="656" width="26" height="20" rx="3" fill="#C8E0F8" stroke="#7DAFC8" stroke-width="1"/>
  <circle cx="279" cy="666" r="3" fill="#A0C8E8"/>
  <!-- WC -->
  <ellipse cx="346" cy="625" rx="13" ry="17" fill="#C8E0F8" stroke="#7DAFC8" stroke-width="1"/>
  <rect x="339" y="609" width="14" height="7" rx="2" fill="#B8D4F0"/>
  <!-- Shower -->
  <rect x="298" y="612" width="75" height="40" rx="2" fill="#D8EEF8" stroke="#7DAFC8" stroke-width="1" stroke-dasharray="4,2"/>
  <text x="300" y="700" text-anchor="middle" font-family="'DM Sans',sans-serif" font-size="10" font-weight="600" fill="#4A90B8">EN-SUITE BATH</text>
  <text x="300" y="714" text-anchor="middle" font-family="'DM Sans',sans-serif" font-size="9" fill="#7DAFC8">~22 m²</text>

  <!-- ── MASTER BEDROOM 01 (top-right area) ────────────── -->
  <rect x="320" y="100" width="220" height="260" fill="url(#parquet3f2)" stroke="#2D3748" stroke-width="1.5"/>
  <rect x="320" y="100" width="220" height="260" fill="#FFF8F0" opacity="0.5"/>
  <!-- Bed -->
  <rect x="340" y="120" width="120" height="70" rx="4" fill="#E8DDD0" stroke="#C0B0A0" stroke-width="1.5"/>
  <rect x="340" y="120" width="120" height="22" rx="3" fill="#D4C8B8"/>
  <!-- Pillows -->
  <ellipse cx="370" cy="134" rx="13" ry="7" fill="#F0EBE0" stroke="#D8D0C4" stroke-width="0.8"/>
  <ellipse cx="400" cy="134" rx="13" ry="7" fill="#F0EBE0" stroke="#D8D0C4" stroke-width="0.8"/>
  <ellipse cx="430" cy="134" rx="11" ry="6" fill="#F0EBE0" stroke="#D8D0C4" stroke-width="0.8"/>
  <!-- Bedside tables -->
  <rect x="328" y="125" width="20" height="20" rx="2" fill="#DDD0C0" stroke="#C0B0A0" stroke-width="1"/>
  <rect x="464" y="125" width="20" height="20" rx="2" fill="#DDD0C0" stroke="#C0B0A0" stroke-width="1"/>
  <!-- Wardrobe -->
  <rect x="336" y="260" width="180" height="22" rx="2" fill="#D8D0C0" stroke="#C0B8A8" stroke-width="1"/>
  <line x1="396" y1="260" x2="396" y2="282" stroke="#B8B0A0" stroke-width="0.8"/>
  <line x1="456" y1="260" x2="456" y2="282" stroke="#B8B0A0" stroke-width="0.8"/>
  <text x="430" y="320" text-anchor="middle" font-family="'DM Sans',sans-serif" font-size="11" font-weight="700" fill="#374151">MASTER BED 01</text>
  <text x="430" y="336" text-anchor="middle" font-family="'DM Sans',sans-serif" font-size="9" fill="#6B7280">~50 m²</text>

  <!-- ── MASTER BEDROOM 01 — DRESSING + BATH ───────────── -->
  <rect x="320" y="360" width="100" height="120" fill="#F8F4EA" stroke="#2D3748" stroke-width="1.5"/>
  <!-- Wardrobes -->
  <rect x="330" y="372" width="78" height="18" rx="2" fill="#D8D0C0" stroke="#C0B8A8" stroke-width="1"/>
  <line x1="369" y1="372" x2="369" y2="390" stroke="#B8B0A0" stroke-width="0.8"/>
  <rect x="330" y="395" width="78" height="18" rx="2" fill="#D8D0C0" stroke="#C0B8A8" stroke-width="1"/>
  <text x="370" y="436" text-anchor="middle" font-family="'DM Sans',sans-serif" font-size="9" font-weight="600" fill="#374151">DRESSING</text>
  <text x="370" y="448" text-anchor="middle" font-family="'DM Sans',sans-serif" font-size="8" fill="#6B7280">~14 m²</text>

  <rect x="420" y="360" width="100" height="120" fill="#EEF6FE" stroke="#2D3748" stroke-width="1.5"/>
  <!-- WC -->
  <ellipse cx="467" cy="380" rx="11" ry="15" fill="#C8E0F8" stroke="#7DAFC8" stroke-width="1"/>
  <rect x="461" y="366" width="12" height="6" rx="2" fill="#B8D4F0"/>
  <!-- Basin -->
  <rect x="430" y="400" width="24" height="18" rx="3" fill="#C8E0F8" stroke="#7DAFC8" stroke-width="1"/>
  <!-- Shower -->
  <rect x="430" y="422" width="76" height="50" rx="2" fill="#D8EEF8" stroke="#7DAFC8" stroke-width="1" stroke-dasharray="4,2"/>
  <text x="470" y="413" text-anchor="middle" font-family="'DM Sans',sans-serif" font-size="8" font-weight="600" fill="#4A90B8">EN-SUITE</text>

  <!-- ── MASTER BEDROOM 02 (right side) ────────────────── -->
  <rect x="380" y="480" width="260" height="240" fill="url(#parquet3f2)" stroke="#2D3748" stroke-width="1.5"/>
  <rect x="380" y="480" width="260" height="240" fill="#FFF8F0" opacity="0.5"/>
  <!-- Bed -->
  <rect x="400" y="500" width="120" height="70" rx="4" fill="#E8DDD0" stroke="#C0B0A0" stroke-width="1.5"/>
  <rect x="400" y="500" width="120" height="22" rx="3" fill="#D4C8B8"/>
  <!-- Pillows -->
  <ellipse cx="428" cy="514" rx="13" ry="7" fill="#F0EBE0" stroke="#D8D0C4" stroke-width="0.8"/>
  <ellipse cx="458" cy="514" rx="13" ry="7" fill="#F0EBE0" stroke="#D8D0C4" stroke-width="0.8"/>
  <ellipse cx="488" cy="514" rx="11" ry="6" fill="#F0EBE0" stroke="#D8D0C4" stroke-width="0.8"/>
  <!-- Bedside tables -->
  <rect x="388" y="504" width="20" height="20" rx="2" fill="#DDD0C0" stroke="#C0B0A0" stroke-width="1"/>
  <rect x="524" y="504" width="20" height="20" rx="2" fill="#DDD0C0" stroke="#C0B0A0" stroke-width="1"/>
  <!-- Wardrobe along bottom -->
  <rect x="396" y="660" width="220" height="22" rx="2" fill="#D8D0C0" stroke="#C0B8A8" stroke-width="1"/>
  <line x1="470" y1="660" x2="470" y2="682" stroke="#B8B0A0" stroke-width="0.8"/>
  <line x1="544" y1="660" x2="544" y2="682" stroke="#B8B0A0" stroke-width="0.8"/>
  <text x="510" y="620" text-anchor="middle" font-family="'DM Sans',sans-serif" font-size="11" font-weight="700" fill="#374151">MASTER BED 02</text>
  <text x="510" y="636" text-anchor="middle" font-family="'DM Sans',sans-serif" font-size="9" fill="#6B7280">~55 m²</text>

  <!-- ── MASTER BED 02 DRESSING + BATH ─────────────────── -->
  <rect x="520" y="360" width="120" height="120" fill="#F8F4EA" stroke="#2D3748" stroke-width="1.5"/>
  <rect x="528" y="372" width="100" height="18" rx="2" fill="#D8D0C0" stroke="#C0B8A8" stroke-width="1"/>
  <line x1="578" y1="372" x2="578" y2="390" stroke="#B8B0A0" stroke-width="0.8"/>
  <rect x="528" y="394" width="100" height="18" rx="2" fill="#D8D0C0" stroke="#C0B8A8" stroke-width="1"/>
  <text x="580" y="436" text-anchor="middle" font-family="'DM Sans',sans-serif" font-size="9" font-weight="600" fill="#374151">DRESSING</text>
  <text x="580" y="448" text-anchor="middle" font-family="'DM Sans',sans-serif" font-size="8" fill="#6B7280">~16 m²</text>

  <rect x="520" y="480" width="120" height="120" fill="#EEF6FE" stroke="#2D3748" stroke-width="1.5"/>
  <!-- Bath tub -->
  <rect x="530" y="493" width="50" height="30" rx="7" fill="#C8E0F8" stroke="#7DAFC8" stroke-width="1.5"/>
  <!-- WC -->
  <ellipse cx="606" cy="510" rx="11" ry="15" fill="#C8E0F8" stroke="#7DAFC8" stroke-width="1"/>
  <!-- Basin -->
  <rect x="530" y="530" width="24" height="18" rx="3" fill="#C8E0F8" stroke="#7DAFC8" stroke-width="1"/>
  <!-- Shower -->
  <rect x="530" y="552" width="100" height="42" rx="2" fill="#D8EEF8" stroke="#7DAFC8" stroke-width="1" stroke-dasharray="4,2"/>
  <text x="580" y="535" text-anchor="middle" font-family="'DM Sans',sans-serif" font-size="8" font-weight="600" fill="#4A90B8">EN-SUITE</text>

  <!-- ── STAIR HALL (right) ─────────────────────────────── -->
  <rect x="540" y="100" width="100" height="260" fill="#F4F0E8" stroke="#2D3748" stroke-width="1.5"/>
  <!-- Stair treads -->
  <rect x="552" y="110" width="76" height="130" fill="none" stroke="#6B7280" stroke-width="1"/>
  <line x1="552" y1="120" x2="628" y2="120" stroke="#9CA3AF" stroke-width="1"/>
  <line x1="552" y1="130" x2="628" y2="130" stroke="#9CA3AF" stroke-width="1"/>
  <line x1="552" y1="140" x2="628" y2="140" stroke="#9CA3AF" stroke-width="1"/>
  <line x1="552" y1="150" x2="628" y2="150" stroke="#9CA3AF" stroke-width="1"/>
  <line x1="552" y1="160" x2="628" y2="160" stroke="#9CA3AF" stroke-width="1"/>
  <line x1="552" y1="170" x2="628" y2="170" stroke="#9CA3AF" stroke-width="1"/>
  <line x1="552" y1="180" x2="628" y2="180" stroke="#9CA3AF" stroke-width="1"/>
  <line x1="552" y1="190" x2="628" y2="190" stroke="#9CA3AF" stroke-width="1"/>
  <line x1="552" y1="200" x2="628" y2="200" stroke="#9CA3AF" stroke-width="1"/>
  <line x1="552" y1="210" x2="628" y2="210" stroke="#9CA3AF" stroke-width="1"/>
  <!-- Arrow -->
  <polygon points="590,248 584,238 596,238" fill="#9CA3AF" opacity="0.8"/>
  <text x="590" y="258" text-anchor="middle" font-family="'DM Sans',sans-serif" font-size="7" fill="#6B7280">DN TO F1</text>
  <!-- Lift -->
  <rect x="556" y="276" width="35" height="35" rx="2" fill="#E0D8F0" stroke="#9088C0" stroke-width="1.5"/>
  <text x="573" y="292" text-anchor="middle" font-family="'DM Sans',sans-serif" font-size="8" fill="#9088C0">LIFT</text>
  <text x="590" y="342" text-anchor="middle" font-family="'DM Sans',sans-serif" font-size="9" font-weight="600" fill="#374151">STAIR</text>
  <text x="590" y="355" text-anchor="middle" font-family="'DM Sans',sans-serif" font-size="8" fill="#6B7280">HALL</text>

  <!-- ── AREA BADGE ─────────────────────────────────────── -->
  <rect x="30" y="782" width="140" height="58" rx="8" fill="rgba(26,56,16,0.88)"/>
  <text x="100" y="806" text-anchor="middle" font-family="'DM Sans',sans-serif" font-size="9" fill="#78BF42" letter-spacing="1">FLOOR AREA</text>
  <text x="100" y="826" text-anchor="middle" font-family="'DM Sans',sans-serif" font-size="18" font-weight="700" fill="white">395 m²</text>
  <text x="100" y="840" text-anchor="middle" font-family="'DM Sans',sans-serif" font-size="8" fill="rgba(255,255,255,0.6)">3 masters + dressing + bath</text>

  <!-- ── NORTH ARROW ────────────────────────────────────── -->
  <g transform="translate(645,820)">
    <circle cx="0" cy="0" r="18" fill="white" stroke="#D1D5DB" stroke-width="1.5"/>
    <polygon points="0,-13 -4,5 0,0 4,5" fill="#1A3810"/>
    <polygon points="0,0 -4,5 0,13 4,5" fill="#9CA3AF"/>
    <text x="0" y="27" text-anchor="middle" font-family="'DM Sans',sans-serif" font-size="8" font-weight="700" fill="#374151">N</text>
  </g>

  <!-- ── LEGEND ────────────────────────────────────────── -->
  <rect x="186" y="782" width="340" height="58" rx="6" fill="#F4F9EF" stroke="#E5E7EB" stroke-width="1"/>
  <rect x="196" y="793" width="12" height="12" rx="2" fill="#FFF8F0" stroke="#2D3748" stroke-width="1"/>
  <text x="214" y="803" font-family="'DM Sans',sans-serif" font-size="8" fill="#374151">Master bedroom</text>
  <rect x="300" y="793" width="12" height="12" rx="2" fill="#F8F4EA" stroke="#C0B8A8" stroke-width="1"/>
  <text x="318" y="803" font-family="'DM Sans',sans-serif" font-size="8" fill="#374151">Dressing room</text>
  <rect x="400" y="793" width="12" height="12" rx="2" fill="#EEF6FE" stroke="#7DAFC8" stroke-width="1"/>
  <text x="418" y="803" font-family="'DM Sans',sans-serif" font-size="8" fill="#374151">En-suite bath</text>
  <rect x="196" y="812" width="12" height="12" rx="2" fill="#EAF4E0" stroke="#78BF42" stroke-width="1" stroke-dasharray="4,2"/>
  <text x="214" y="822" font-family="'DM Sans',sans-serif" font-size="8" fill="#374151">Terrace / balcony</text>
  <rect x="340" y="812" width="12" height="12" rx="2" fill="#F4F0E8" stroke="#6B7280" stroke-width="1"/>
  <text x="358" y="822" font-family="'DM Sans',sans-serif" font-size="8" fill="#374151">Stair / service core</text>
  <text x="303" y="836" text-anchor="middle" font-family="'DM Sans',sans-serif" font-size="8" fill="#9CA3AF">Deddeh Hills · Villa 3F · F2 · Illustrative only</text>

</svg>
