<svg xmlns="http://www.w3.org/2000/svg" viewBox="0 0 600 800">
  <defs>
    <pattern id="garden3" patternUnits="userSpaceOnUse" width="10" height="10">
      <path d="M0,5 Q2.5,0 5,5 Q7.5,10 10,5" fill="none" stroke="#95CC58" stroke-width="0.8" opacity="0.5"/>
    </pattern>
  </defs>

  <rect width="600" height="800" fill="#FAFAF9"/>
  <rect x="0" y="0" width="600" height="72" fill="#1A3810"/>
  <text x="30" y="28" font-family="'DM Sans',sans-serif" font-size="9" font-weight="600" fill="#78BF42" letter-spacing="3">DEDDEH HILLS</text>
  <text x="30" y="50" font-family="'DM Sans',sans-serif" font-size="18" font-weight="700" fill="white">Villa 3F — Ground Floor</text>
  <text x="30" y="64" font-family="'DM Sans',sans-serif" font-size="9" fill="rgba(255,255,255,0.5)">indicative · not to scale · BUA ~150 m² per floor</text>

  <!-- Building shadow + outer wall -->
  <rect x="54" y="92" width="496" height="590" rx="3" fill="#D1D5DB" opacity="0.4"/>
  <rect x="50" y="88" width="496" height="590" rx="2" fill="#374151"/>

  <!-- GRAND ENTRY / FOYER (center, prominent) -->
  <rect x="200" y="94" width="200" height="110" fill="#F0EDE8"/>
  <!-- decorative floor pattern in entry -->
  <rect x="215" y="109" width="170" height="80" fill="none" stroke="#C8B890" stroke-width="1" stroke-dasharray="4,4"/>
  <circle cx="300" cy="149" r="25" fill="none" stroke="#C8B890" stroke-width="1"/>
  <text x="300" y="143" text-anchor="middle" font-family="'DM Sans',sans-serif" font-size="11" font-weight="700" fill="#374151">GRAND</text>
  <text x="300" y="158" text-anchor="middle" font-family="'DM Sans',sans-serif" font-size="11" font-weight="700" fill="#374151">ENTRY</text>
  <text x="300" y="190" text-anchor="middle" font-family="'DM Sans',sans-serif" font-size="8" fill="#9CA3AF">15 m²</text>
  <!-- double front door -->
  <line x1="250" y1="94" x2="350" y2="94" stroke="#6B7280" stroke-width="4" stroke-dasharray="10,5"/>

  <!-- GUEST SUITE (right, top) -->
  <rect x="400" y="94" width="140" height="200" fill="#EBF3FA"/>
  <rect x="415" y="108" width="110" height="75" rx="5" fill="none" stroke="#7DB9D4" stroke-width="1.5"/>
  <rect x="415" y="108" width="110" height="24" rx="5" fill="#B8D9E8" opacity="0.5"/>
  <text x="470" y="212" text-anchor="middle" font-family="'DM Sans',sans-serif" font-size="11" font-weight="700" fill="#374151">GUEST</text>
  <text x="470" y="227" text-anchor="middle" font-family="'DM Sans',sans-serif" font-size="11" font-weight="700" fill="#374151">SUITE</text>
  <text x="470" y="242" text-anchor="middle" font-family="'DM Sans',sans-serif" font-size="8" fill="#9CA3AF">16 m²</text>

  <!-- GARAGE (left, top + large) -->
  <rect x="56" y="94" width="144" height="200" fill="#ECEAE5"/>
  <rect x="68" y="150" width="50" height="32" rx="5" fill="none" stroke="#9CA3AF" stroke-width="1.5" stroke-dasharray="3,2"/>
  <rect x="128" y="150" width="50" height="32" rx="5" fill="none" stroke="#9CA3AF" stroke-width="1.5" stroke-dasharray="3,2"/>
  <text x="128" y="130" text-anchor="middle" font-family="'DM Sans',sans-serif" font-size="10" font-weight="700" fill="#4B5563">GARAGE</text>
  <text x="128" y="210" text-anchor="middle" font-family="'DM Sans',sans-serif" font-size="8" fill="#9CA3AF">2 cars</text>
  <line x1="56" y1="94" x2="200" y2="94" stroke="#6B7280" stroke-width="3" stroke-dasharray="8,4"/>

  <!-- CLOAKROOM / WC (below entry, left) -->
  <rect x="200" y="204" width="100" height="90" fill="#E8F4FB"/>
  <ellipse cx="220" cy="237" rx="12" ry="16" fill="none" stroke="#7DB9D4" stroke-width="1.5"/>
  <rect x="244" y="227" width="18" height="24" rx="9" fill="none" stroke="#7DB9D4" stroke-width="1.5"/>
  <text x="250" y="278" text-anchor="middle" font-family="'DM Sans',sans-serif" font-size="9" font-weight="600" fill="#374151">CLOAKROOM</text>
  <text x="250" y="290" text-anchor="middle" font-family="'DM Sans',sans-serif" font-size="8" fill="#9CA3AF">6 m²</text>

  <!-- STAIRCASE (below entry, right half) -->
  <rect x="300" y="204" width="100" height="90" fill="#F0EEE8"/>
  <line x1="300" y1="224" x2="400" y2="224" stroke="#9CA3AF" stroke-width="1"/>
  <line x1="300" y1="240" x2="400" y2="240" stroke="#9CA3AF" stroke-width="1"/>
  <line x1="300" y1="256" x2="400" y2="256" stroke="#9CA3AF" stroke-width="1"/>
  <line x1="300" y1="272" x2="400" y2="272" stroke="#9CA3AF" stroke-width="1"/>
  <text x="350" y="288" text-anchor="middle" font-family="'DM Sans',sans-serif" font-size="8" fill="#9CA3AF">STAIRS</text>

  <!-- Horizontal wall row 1 / row 2 -->
  <rect x="56" y="294" width="480" height="5" fill="#374151"/>

  <!-- FORMAL LIVING (large, center-left middle) -->
  <rect x="56" y="299" width="260" height="175" fill="#F5F9F1"/>
  <!-- sofa arrangement -->
  <rect x="75" y="340" width="160" height="55" rx="5" fill="none" stroke="#A8C99A" stroke-width="1.5"/>
  <rect x="75" y="340" width="160" height="18" rx="4" fill="#C8E0B8" opacity="0.5"/>
  <rect x="258" y="355" width="45" height="40" rx="5" fill="none" stroke="#A8C99A" stroke-width="1"/>
  <text x="186" y="328" text-anchor="middle" font-family="'DM Sans',sans-serif" font-size="13" font-weight="700" fill="#2D5A27">FORMAL</text>
  <text x="186" y="344" text-anchor="middle" font-family="'DM Sans',sans-serif" font-size="13" font-weight="700" fill="#2D5A27">LIVING</text>
  <text x="186" y="454" text-anchor="middle" font-family="'DM Sans',sans-serif" font-size="8" fill="#9CA3AF">50 m²</text>

  <!-- Vertical wall -->
  <rect x="316" y="299" width="5" height="175" fill="#374151"/>

  <!-- FORMAL DINING (right, middle) -->
  <rect x="321" y="299" width="219" height="175" fill="#F5F9F1"/>
  <ellipse cx="431" cy="383" rx="65" ry="42" fill="none" stroke="#A8C99A" stroke-width="1.5"/>
  <circle cx="380" cy="347" r="8" fill="none" stroke="#A8C99A" stroke-width="1"/>
  <circle cx="430" cy="340" r="8" fill="none" stroke="#A8C99A" stroke-width="1"/>
  <circle cx="482" cy="347" r="8" fill="none" stroke="#A8C99A" stroke-width="1"/>
  <circle cx="380" cy="420" r="8" fill="none" stroke="#A8C99A" stroke-width="1"/>
  <circle cx="430" cy="427" r="8" fill="none" stroke="#A8C99A" stroke-width="1"/>
  <circle cx="482" cy="420" r="8" fill="none" stroke="#A8C99A" stroke-width="1"/>
  <text x="431" y="455" text-anchor="middle" font-family="'DM Sans',sans-serif" font-size="11" font-weight="700" fill="#374151">FORMAL DINING</text>
  <text x="431" y="468" text-anchor="middle" font-family="'DM Sans',sans-serif" font-size="8" fill="#9CA3AF">30 m²</text>

  <!-- Horizontal wall row 2 / row 3 -->
  <rect x="56" y="474" width="480" height="5" fill="#374151"/>

  <!-- KITCHEN (left, lower) -->
  <rect x="56" y="479" width="200" height="135" fill="#FFF4ED"/>
  <rect x="60" y="483" width="192" height="24" rx="3" fill="#E8C9A8" stroke="#C9996A" stroke-width="1"/>
  <rect x="56" y="479" width="200" height="135" fill="none"/>
  <text x="156" y="558" text-anchor="middle" font-family="'DM Sans',sans-serif" font-size="12" font-weight="700" fill="#374151">KITCHEN</text>
  <text x="156" y="575" text-anchor="middle" font-family="'DM Sans',sans-serif" font-size="8" fill="#9CA3AF">22 m²</text>

  <!-- UTILITY + PANTRY (center, lower) -->
  <rect x="256" y="479" width="140" height="135" fill="#EDECEA"/>
  <text x="326" y="540" text-anchor="middle" font-family="'DM Sans',sans-serif" font-size="11" font-weight="600" fill="#4B5563">UTILITY</text>
  <text x="326" y="555" text-anchor="middle" font-family="'DM Sans',sans-serif" font-size="9" font-weight="500" fill="#4B5563">+ PANTRY</text>
  <text x="326" y="575" text-anchor="middle" font-family="'DM Sans',sans-serif" font-size="8" fill="#9CA3AF">12 m²</text>

  <!-- Vertical wall -->
  <rect x="396" y="474" width="5" height="140" fill="#374151"/>

  <!-- COVERED TERRACE (right, lower) -->
  <rect x="401" y="479" width="135" height="135" fill="#DFF1D5"/>
  <line x1="401" y1="496" x2="420" y2="479" stroke="#B5D9A0" stroke-width="0.8"/>
  <line x1="424" y1="496" x2="444" y2="479" stroke="#B5D9A0" stroke-width="0.8"/>
  <line x1="448" y1="496" x2="468" y2="479" stroke="#B5D9A0" stroke-width="0.8"/>
  <line x1="472" y1="496" x2="492" y2="479" stroke="#B5D9A0" stroke-width="0.8"/>
  <line x1="496" y1="496" x2="516" y2="479" stroke="#B5D9A0" stroke-width="0.8"/>
  <text x="469" y="538" text-anchor="middle" font-family="'DM Sans',sans-serif" font-size="11" font-weight="700" fill="#2D5A27">COVERED</text>
  <text x="469" y="553" text-anchor="middle" font-family="'DM Sans',sans-serif" font-size="11" font-weight="700" fill="#2D5A27">TERRACE</text>
  <text x="469" y="568" text-anchor="middle" font-family="'DM Sans',sans-serif" font-size="8" fill="#6AAB50">20 m²</text>

  <!-- Horizontal wall before garden -->
  <rect x="56" y="614" width="480" height="5" fill="#374151"/>

  <!-- GARDEN TERRACE -->
  <rect x="56" y="619" width="480" height="55" fill="url(#garden3)"/>
  <rect x="56" y="619" width="480" height="55" fill="#C8E8A8" opacity="0.35"/>
  <text x="296" y="650" text-anchor="middle" font-family="'DM Sans',sans-serif" font-size="12" font-weight="700" fill="#2D5A27">GARDEN TERRACE</text>
  <text x="296" y="664" text-anchor="middle" font-family="'DM Sans',sans-serif" font-size="8" fill="#6AAB50">~120 m² · landscaped · views to valley</text>

  <!-- North arrow -->
  <g transform="translate(556,110)">
    <circle cx="0" cy="0" r="17" fill="white" stroke="#D1D5DB" stroke-width="1.5"/>
    <polygon points="0,-12 -4,4 0,0 4,4" fill="#1A3810"/>
    <polygon points="0,0 -4,4 0,12 4,4" fill="#9CA3AF"/>
    <text x="0" y="26" text-anchor="middle" font-family="'DM Sans',sans-serif" font-size="8" font-weight="700" fill="#374151">N</text>
  </g>

  <!-- Footer -->
  <rect x="0" y="732" width="600" height="68" fill="#F4F9EF"/>
  <line x1="0" y1="732" x2="600" y2="732" stroke="#E5E7EB" stroke-width="1"/>
  <rect x="30" y="750" width="10" height="10" rx="2" fill="#EBF3FA"/>
  <text x="44" y="759" font-family="'DM Sans',sans-serif" font-size="8" fill="#6B7280">Bedroom / Suite</text>
  <rect x="140" y="750" width="10" height="10" rx="2" fill="#E8F4FB"/>
  <text x="154" y="759" font-family="'DM Sans',sans-serif" font-size="8" fill="#6B7280">Bathroom</text>
  <rect x="210" y="750" width="10" height="10" rx="2" fill="#F5F9F1"/>
  <text x="224" y="759" font-family="'DM Sans',sans-serif" font-size="8" fill="#6B7280">Living / Dining</text>
  <rect x="310" y="750" width="10" height="10" rx="2" fill="#DFF1D5"/>
  <text x="324" y="759" font-family="'DM Sans',sans-serif" font-size="8" fill="#6B7280">Terrace / Garden</text>
  <text x="300" y="782" text-anchor="middle" font-family="'DM Sans',sans-serif" font-size="8" fill="#9CA3AF">Deddeh Hills Gated Community · Koura, Lebanon · For illustration purposes only</text>
</svg>
